PathFileType	4	(X/Y/Z)	Run_500 03
DataRate	CameraRate	NumFrames	NumMarkers	Units	OrigDataRate	OrigDataStartFrame	OrigNumFrames
100	100	6	42	mm	100	34	128
Frame#	Time	RASI			LPSI			RPSI			RTH1			RTH2			RTH3			LTH1			LTH2			LTH3			RTB1			RTB2			RTB3			LTB1			LTB2			LTB3			RCAL			RTOE			RMT5			LCAL			LTOE			LMT5			LACR			RACR			CLAV			C7			RUA1			RUA2			RUA3			RLEL			RMEL			LUA1			LUA2			LUA3			LLEL			LMEL			RFAsuperior			RFAradius			RFAulna			LFAsuperior			LFAradius			LFAulna			LASI			
		X1	Y1	Z1	X2	Y2	Z2	X3	Y3	Z3	X4	Y4	Z4	X5	Y5	Z5	X6	Y6	Z6	X7	Y7	Z7	X8	Y8	Z8	X9	Y9	Z9	X10	Y10	Z10	X11	Y11	Z11	X12	Y12	Z12	X13	Y13	Z13	X14	Y14	Z14	X15	Y15	Z15	X16	Y16	Z16	X17	Y17	Z17	X18	Y18	Z18	X19	Y19	Z19	X20	Y20	Z20	X21	Y21	Z21	X22	Y22	Z22	X23	Y23	Z23	X24	Y24	Z24	X25	Y25	Z25	X26	Y26	Z26	X27	Y27	Z27	X28	Y28	Z28	X29	Y29	Z29	X30	Y30	Z30	X31	Y31	Z31	X32	Y32	Z32	X33	Y33	Z33	X34	Y34	Z34	X35	Y35	Z35	X36	Y36	Z36	X37	Y37	Z37	X38	Y38	Z38	X39	Y39	Z39	X40	Y40	Z40	X41	Y41	Z41	X42	Y42	Z42	

24	0.62	763.618416	1018.316603	-195.035821	602.332985	1126.53396	-371.977298	600.841872	1122.776727	-286.378426	644.011531	908.021665	-145.078157	635.156351	764.232664	-161.013966	518.45704	701.4518440000001	-184.68526	757.001907	959.1357870000001	-511.309019	877.723957	909.541815	-481.643626	895.71639	756.281581	-479.718781	418.456779	468.005518	-242.633607	304.552346	441.74058	-205.445086	257.340428	347.154227	-263.246186	978.281514	554.037654	-418.172188	892.815955	500.849608	-479.855989	887.570702	366.519773	-408.323142	92.064668	376.352965	-316.405896	169.012686	157.60683	-285.921916	115.877686	177.862344	-216.770892	718.986639	271.729519	-381.055578	933.040671	182.426743	-398.759099	886.289405	159.659005	-474.346676	711.338535	1587.626328	-484.811362	751.140667	1554.360855	-159.976784	806.9810649999999	1528.439219	-314.218322	663.338941	1593.719929	-330.672542	730.276443	1446.779829	-65.31465799999999	669.576133	1358.343083	-66.40639299999999	729.278768	1334.516978	-22.175679	740.835657	1244.868951	15.838075	701.741884	1205.903253	-47.726665	621.266884	1545.566596	-576.866321	531.147263	1506.354383	-557.687194	541.346362	1473.085811	-633.027388	490.581134	1407.879889	-681.528905	438.142906	1406.641861	-624.473467	816.096284	1217.489378	-0.353031	985.028278	1231.018299	-116.670967	980.551755	1167.938715	-82.487827	513.628644	1280.606449	-669.137038	568.688937	1159.416395	-577.354917	513.477437	1143.513584	-610.851887	775.907524	1047.485129	-450.024097	
25	0.63	765.330719	1021.973294	-195.527426	601.795956	1129.294199	-371.061211	601.74987	1126.800144	-285.632059	646.826012	910.856009	-144.820535	637.867809	766.875102	-161.351249	521.311302	703.940196	-182.477168	754.693777	957.222379	-513.144583	876.23493	907.556411	-482.071276	888.1470870000001	751.440064	-479.038145	410.956991	475.983477	-240.668213	294.317213	459.611619	-206.164694	240.280194	369.403957	-264.819086	979.4639079999999	547.590336	-419.905057	900.758276	484.187277	-481.420617	912.4466159999999	350.519674	-409.256181	78.181499	412.537048	-318.866453	138.290147	188.458739	-292.473148	90.20157	212.882542	-222.596481	757.341997	235.638773	-379.535261	980.691209	173.344264	-399.512078	936.081213	143.732635	-474.061715	710.049404	1590.062136	-486.615767	751.073086	1558.002684	-161.164488	806.859472	1531.390439	-316.73803	663.219938	1596.084656	-332.477198	729.067041	1449.923957	-67.507407	668.831731	1360.983015	-68.981116	727.446822	1337.888872	-23.571503	739.774231	1248.212093	13.49603	700.008141	1209.696074	-50.225892	619.476188	1548.447164	-578.083935	529.8130619999999	1509.229476	-556.988119	538.763212	1476.251317	-632.568939	487.776125	1411.464006	-681.4876819999999	436.203691	1409.226269	-624.048807	814.570715	1220.291232	-3.781632	982.465055	1234.121028	-121.179285	977.941688	1170.438521	-87.972787	513.163262	1284.579254	-670.1849099999999	572.4917	1163.672924	-580.183656	516.007862	1147.188032	-611.489077	776.2110750000001	1051.562032	-450.793947	
26	0.64	767.103495	1024.971698	-195.799903	601.065392	1130.452227	-370.094546	602.029316	1129.3669	-284.758678	650.45676	912.3831709999999	-144.252002	641.310751	768.377805	-161.353284	525.329072	704.98038	-180.766148	752.374426	955.75202	-514.099839	873.50318	902.497485	-482.657025	877.7986	743.890503	-479.022224	406.202444	483.225897	-239.329228	287.874612	477.019401	-206.845043	226.947717	392.487443	-266.81816	977.207344	539.326898	-421.2618	907.192501	467.025302	-482.995511	934.125329	335.849331	-410.058054	70.168859	450.359026	-321.597384	111.178036	221.128439	-298.11843	67.17383599999999	249.181577	-229.046462	794.053363	203.84457	-380.105422	1023.048821	167.955151	-398.307983	982.770182	130.888617	-471.787643	709.058928	1591.304296	-488.58877	750.723497	1560.882823	-162.107944	806.518055	1533.65594	-318.917562	663.397811	1597.863563	-334.33554	728.047134	1451.922318	-69.780485	667.044932	1363.218714	-71.956326	724.698542	1340.164607	-25.382983	737.104994	1250.371511	10.824855	696.774486	1212.813376	-53.025384	618.333786	1549.332608	-579.749818	529.466608	1509.045965	-558.145295	538.1244819999999	1476.565655	-633.8836669999999	487.498172	1411.62318	-682.802609	436.158866	1408.594216	-625.512409	811.297892	1221.139384	-6.885681	979.302104	1232.762422	-124.429991	973.5714829999999	1168.977306	-91.98381000000001	515.143368	1285.29324	-672.065478	578.319116	1165.172818	-583.356385	520.9048790000001	1148.1082	-612.834323	776.539363	1055.24505	-451.350917	
27	0.65	768.7463749999999	1027.176295	-195.765116	600.230162	1129.941971	-368.828513	601.8513400000001	1130.379218	-283.588471	654.271779	912.924929	-143.341881	645.4239	768.751659	-160.506681	530.577371	704.325278	-179.292574	749.647219	954.525518	-514.018332	868.428142	893.860339	-483.961418	864.677214	734.055816	-479.352531	404.14139	489.671584	-239.055925	285.327718	493.497571	-207.667923	217.56503	416.265637	-269.597652	972.091292	530.100162	-422.165527	911.88818	450.812735	-484.534648	951.920848	323.374709	-410.649183	66.99768899999999	488.496757	-324.634433	89.61959899999999	256.01854	-303.379794	47.112468	286.529545	-235.263974	827.105814	177.836632	-382.451404	1058.384194	165.680536	-395.067319	1024.170002	121.786816	-467.784447	708.330089	1591.120877	-490.81159	750.384056	1562.835026	-163.541137	805.959638	1534.997563	-320.881261	663.805538	1599.07976	-336.346573	727.152239	1453.132724	-72.035145	664.39423	1365.478913	-75.20921199999999	721.262004	1341.742488	-27.497153	732.925618	1251.480396	7.997997	692.166556	1215.227013	-55.920475	617.727276	1548.13744	-581.832706	529.844655	1506.093502	-560.991416	539.145655	1474.172583	-636.846241	489.375776	1408.635256	-685.608028	437.812375	1404.853701	-628.680057	806.392823	1220.193375	-9.469537000000001	975.458724	1227.368681	-126.272352	967.362783	1163.738812	-94.39504700000001	519.2839729999999	1282.996575	-674.8532269999999	585.948411	1164.262346	-586.706041	528.071146	1146.362909	-614.816864	776.701781	1058.393533	-451.598181	
28	0.66	770.08539	1028.454145	-195.636575	599.235337	1127.886034	-367.120432	601.460226	1129.82207	-282.070981	657.913579	912.559025	-142.186334	650.4134309999999	767.903997	-158.897752	537.24494	701.75284	-177.728261	746.3283699999999	952.517886	-513.482244	861.130686	882.526864	-485.765551	849.482978	722.689516	-479.819209	404.683508	495.146505	-239.55326	286.397753	508.853997	-208.661565	212.326453	440.184149	-272.853999	964.8387300000001	520.765939	-422.846312	913.721075	436.756823	-486.014022	965.136184	313.572817	-411.493281	68.26570700000001	525.934543	-327.39539	74.24445299999999	292.671603	-309.017112	30.51062	324.738879	-240.413545	854.23253	158.305366	-385.609836	1085.472359	165.048725	-391.124606	1057.328091	116.150854	-463.494046	707.808842	1589.312339	-493.361479	750.203726	1563.589428	-165.794835	805.267797	1535.107558	-322.794881	664.278427	1599.624177	-338.660822	726.044927	1453.950527	-74.16055799999999	661.139615	1367.791508	-78.443735	717.240356	1342.754075	-29.755001	727.46937	1251.741921	5.414941	686.169044	1216.891282	-58.592052	617.6386	1544.80111	-584.386422	530.858852	1500.843868	-565.2405220000001	541.533289	1469.329224	-641.111187	493.084761	1402.906684	-689.801383	440.968003	1398.258754	-633.325024	800.022064	1217.733363	-11.331736	970.669833	1218.547983	-126.599431	959.3681319999999	1155.283103	-95.114473	525.385939	1278.066441	-678.559132	595.276884	1161.328608	-590.162409	537.405098	1142.160369	-617.409051	776.6525799999999	1060.303808	-451.727295	
29	0.67	771.0458149999999	1028.641825	-195.649604	597.98045	1124.573423	-365.114778	601.049974	1127.688124	-280.347057	661.399594	911.077728	-141.079793	656.3065800000001	765.732116	-157.061183	545.22279	697.3920419999999	-175.991603	742.545122	948.672548	-513.0071390000001	852.7276900000001	870.100418	-487.28999	833.8817340000001	711.069477	-480.643523	407.774307	499.496574	-240.184308	290.821736	522.995309	-209.61963	211.406399	463.403897	-275.897986	956.255612	511.966661	-423.622866	911.5029939999999	425.196282	-487.132197	973.1569459999999	306.162675	-413.083274	74.57744700000001	561.946062	-329.251478	64.32334	329.561125	-314.582971	18.176363	363.391946	-243.987569	873.449478	144.724158	-388.109081	1103.695064	164.190151	-388.90098	1079.737662	112.3137	-461.007677	707.457188	1585.78336	-496.219239	750.115988	1562.881439	-168.684507	804.514737	1533.751714	-324.760383	664.626955	1599.267628	-341.39891	724.400768	1454.376803	-76.166089	657.382301	1369.768244	-81.350495	712.665126	1343.071793	-31.992152	720.936497	1251.236499	3.352887	678.738653	1217.734004	-60.763971	618.159685	1539.334348	-587.538551	532.50203	1493.630361	-570.635414	545.091902	1462.251943	-646.340444	498.450315	1394.784912	-695.206038	445.543102	1389.088281	-639.31703	792.368993	1214.068649	-12.39158	964.577399	1206.869782	-125.431325	949.574398	1144.174423	-94.337249	533.398986	1270.856267	-683.074566	606.249012	1156.69247	-593.669025	548.806955	1135.835997	-620.584899	776.542958	1059.998524	-451.930164	
